<svg xmlns="http://www.w3.org/2000/svg" width="80" height="80" viewBox="0 0 80 80" fill="none"><path d="M16.2095 63.3911C17.2199 62.1995 18.046 61.4878 19.5357 61.4878C21.2288 61.4878 22.0646 62.4063 23.288 63.9039C24.4649 65.3454 25.9301 67.1392 28.7666 67.1392C31.6037 67.1392 33.0684 65.3454 34.2458 63.9039C35.4687 62.4063 36.305 61.4878 37.9976 61.4878C39.6906 61.4878 40.5264 62.4063 41.7493 63.9039C42.9267 65.3454 44.392 67.1392 47.2286 67.1392C50.0657 67.1392 51.5304 65.3454 52.7078 63.9039C53.9315 62.4063 54.767 61.4878 56.46 61.4878C58.153 61.4878 58.9889 62.4063 60.2123 63.9039C61.3901 65.3454 62.8548 67.1392 65.6919 67.1392C68.5285 67.1392 69.994 65.3454 71.171 63.9039C72.3944 62.4063 73.2302 61.4878 74.9238 61.4878C76.3546 61.4878 76.357 59.2609 74.9238 59.2609C72.0872 59.2609 70.6217 61.0548 69.4446 62.4962C68.2212 63.9943 67.3849 64.9124 65.6919 64.9124C64.2036 64.9124 63.3775 64.2029 62.3689 63.0137C63.0658 62.2753 63.7289 61.5058 64.3562 60.7075C65.2398 59.5826 63.4878 58.2062 62.6033 59.3328C62.0669 60.0134 61.5028 60.6719 60.9126 61.3066C59.8804 60.2244 58.5387 59.2609 56.46 59.2609C53.623 59.2609 52.1578 61.0548 50.9809 62.4962C49.7575 63.9943 48.9216 64.9124 47.2286 64.9124C45.5458 64.9124 44.709 64.004 43.4972 62.5219C47.6151 61.5296 51.4036 59.3848 54.3938 56.3895C56.6419 54.1376 58.3201 51.6056 59.5091 48.6124C60.6034 45.8587 61.1599 42.8988 61.1487 39.937C61.1255 33.8706 58.6831 27.9592 54.3938 23.6616C49.3616 18.6213 42.4186 16.208 35.3425 17.0406C33.921 17.208 34.18 19.4188 35.6028 19.2523C40.4917 18.677 45.3096 19.818 49.3397 22.4232L41.9397 29.8364C39.4563 28.8869 36.6522 28.8869 34.1688 29.8364L26.7687 22.4228C27.782 21.7695 28.8504 21.2057 29.9617 20.7378C31.2802 20.1833 30.417 18.1298 29.0961 18.6856C26.3342 19.8481 23.8514 21.5218 21.715 23.6616C12.7078 32.6847 12.7078 47.3669 21.715 56.3895C24.7201 59.4 28.4326 61.4907 32.5194 62.4949L32.5184 62.4962C31.2955 63.9943 30.4597 64.9124 28.7666 64.9124C27.0741 64.9124 26.2378 63.9938 25.0144 62.4962C23.8375 61.0548 22.3728 59.2609 19.5357 59.2609C17.4955 59.2609 16.1645 60.1891 15.1402 61.2463C3.82954 48.999 4.11124 29.8165 15.9895 17.9171C21.8836 12.0129 29.7195 8.76138 38.0547 8.76138C46.389 8.76138 54.2253 12.0129 60.1189 17.917C64.9075 22.7138 67.9544 28.7862 68.9304 35.4781C69.8743 41.9493 68.7434 48.6907 65.7452 54.4598C65.0854 55.7289 67.0633 56.7563 67.7233 55.4859C68.1057 54.7492 68.4599 53.9981 68.7851 53.2344L72.0918 54.5151C73.4284 55.0334 74.2323 52.9562 72.8975 52.4392L69.5885 51.1578C70.5988 48.2641 71.2129 45.2277 71.411 42.1608L74.9011 42.2302C76.3281 42.258 76.3886 40.0329 74.9461 40.0042L71.4824 39.9351C71.4815 38.3363 71.3658 36.7396 71.1362 35.1572C70.9216 33.6857 70.6102 32.23 70.2039 30.7994L73.3476 29.7238C74.7015 29.2606 73.9808 27.1529 72.6255 27.617L69.5258 28.6782C68.3721 25.4531 66.7268 22.4334 64.6323 19.6978L68.4518 15.8719C72.4845 11.8315 66.2358 5.4973 62.161 9.57871L58.3442 13.4024C55.6074 11.3004 52.5903 9.65159 49.3848 8.498L50.4448 5.3906C50.9061 4.03773 48.7968 3.3182 48.335 4.67286L47.2629 7.81587C44.3349 6.98098 41.2746 6.54418 38.148 6.53588L38.0793 3.06871C38.0506 1.63964 35.8224 1.68189 35.8507 3.11322L35.9203 6.60401C32.8234 6.79819 29.8081 7.41302 26.9399 8.42287L25.6669 5.12401C25.1517 3.79013 23.0716 4.58894 23.5872 5.92472L24.864 9.23426C22.3487 10.3156 19.9655 11.7115 17.7646 13.4024L13.9479 9.57883C9.89074 5.51451 3.61521 11.8229 7.657 15.872L11.4779 19.6994C9.7704 21.9272 8.35228 24.3622 7.25744 26.9462L3.90617 25.648C2.57194 25.1314 1.76439 27.2068 3.10005 27.7237L6.45916 29.0252C5.46591 31.8942 4.86449 34.9093 4.68176 38.0042L1.09656 37.9328C-0.334265 37.9162 -0.381195 40.1305 1.05201 40.1588L4.62224 40.2302C4.64042 43.3487 5.08263 46.4009 5.91941 49.3204L2.64976 50.4392C1.29652 50.9028 2.01639 53.0101 3.37248 52.546L6.60399 51.4403C8.13319 55.6766 10.5228 59.585 13.6815 62.9494C12.648 64.1767 11.8191 64.9125 10.3047 64.9125C8.61211 64.9125 7.77676 63.9939 6.5529 62.4963C5.37597 61.0549 3.91081 59.261 1.07423 59.261C-0.356601 59.261 -0.358858 61.4879 1.07423 61.4879C2.76679 61.4879 3.60262 62.406 4.826 63.9041C6.00293 65.345 7.46809 67.1393 10.3047 67.1393C13.1419 67.1393 14.6069 65.3455 15.7839 63.9041C15.8062 63.8768 15.8275 63.8506 15.8498 63.8243C15.8976 63.7895 15.944 63.7514 15.9876 63.7088C16.0827 63.6138 16.1561 63.5057 16.2095 63.3911ZM34.2959 60.6022C31.5925 60.1089 29.0479 59.0964 26.771 57.6266L34.1688 50.2151C35.4094 50.689 36.7265 50.9315 38.0547 50.9306C39.3827 50.9315 40.6997 50.689 41.9402 50.2152L49.3384 57.6265C47.0341 59.1149 44.4578 60.1303 41.7169 60.6166C40.7896 59.8465 39.6173 59.2609 37.9976 59.2609C36.3877 59.2609 35.2199 59.8391 34.2959 60.6022ZM44.1766 33.8888C47.5549 37.2725 47.5549 42.7792 44.1766 46.1629C42.5412 47.8015 40.3669 48.7036 38.0547 48.7036C35.7421 48.7036 33.5677 47.8015 31.9323 46.1629C28.5546 42.7792 28.5546 37.2725 31.9323 33.8888C33.5677 32.2502 35.7421 31.3479 38.0546 31.3479C40.3669 31.3479 42.5412 32.2502 44.1766 33.8888ZM51.1647 56.3029L44.023 49.1483C44.6467 48.7371 45.227 48.2638 45.755 47.7356C46.2815 47.2078 46.7527 46.6277 47.1612 46.0043L54.3034 53.1593C53.8367 53.7376 53.3402 54.2912 52.8159 54.8178C52.2915 55.341 51.7404 55.8367 51.1647 56.3029ZM55.6224 51.3275L48.2232 43.9151C49.1713 41.4151 49.1713 38.6365 48.2232 36.1365L55.6223 28.7241C60.0197 35.5819 60.0197 44.4696 55.6223 51.3275H55.6224ZM54.3034 26.8922L47.1612 34.0469C46.7526 33.4237 46.2814 32.8437 45.755 32.3161C45.2273 31.7874 44.647 31.314 44.023 30.9032L51.1655 23.7473C51.7411 24.2139 52.2919 24.7101 52.8159 25.2338C53.3403 25.7603 53.8368 26.3139 54.3034 26.8922ZM24.9429 23.7473L32.0863 30.9034C31.4623 31.3141 30.882 31.7875 30.3543 32.3161C29.8276 32.8435 29.3564 33.4235 28.9481 34.0469L21.8056 26.8922C22.2722 26.3137 22.769 25.7601 23.294 25.2338C23.8174 24.71 24.3677 24.2138 24.9429 23.7473ZM20.4867 28.7241L27.8861 36.1366C26.9376 38.6365 26.9376 41.4151 27.8861 43.9151L20.4867 51.3275C16.0898 44.4696 16.0898 35.5819 20.4867 28.7241ZM21.8056 53.1593L28.9481 46.0043C29.3563 46.6279 29.8275 47.2081 30.3543 47.7356C30.8821 48.264 31.4625 48.7373 32.0863 49.1483L24.9443 56.3029C24.3683 55.837 23.8171 55.3413 23.2931 54.8178C22.7687 54.2912 22.2722 53.7376 21.8056 53.1593ZM9.23551 11.1515C10.0903 10.2951 11.5151 10.2951 12.3695 11.1515L16.0355 14.8237C15.4778 15.3131 14.9363 15.8204 14.4116 16.3449C13.8857 16.8711 13.3822 17.4131 12.8967 17.9672L9.23539 14.2998C8.36938 13.4313 8.3695 12.0195 9.23551 11.1515ZM65.3066 10.5011C67.2479 10.5011 68.2361 12.9348 66.8735 14.2998L63.2127 17.9662C62.7253 17.4095 62.22 16.8687 61.6974 16.3449C61.1729 15.8204 60.6314 15.3131 60.074 14.8237L63.7394 11.1515C64.1585 10.7319 64.7148 10.5011 65.3066 10.5011ZM74.9238 70.1043C72.0872 70.1043 70.6217 71.8977 69.4446 73.3391C68.2212 74.8371 67.3849 75.7552 65.6919 75.7552C63.9988 75.7552 63.163 74.8372 61.9396 73.3391C60.7618 71.8976 59.2971 70.1043 56.46 70.1043C53.6234 70.1043 52.1578 71.8977 50.9809 73.3391C49.7575 74.8371 48.9216 75.7552 47.2286 75.7552C45.536 75.7552 44.6996 74.8372 43.4764 73.3391C42.2993 71.8976 40.8346 70.1043 37.9976 70.1043C35.161 70.1043 33.6958 71.8977 32.5184 73.3391C31.2955 74.8371 30.4597 75.7552 28.7666 75.7552C27.0741 75.7552 26.2378 74.8372 25.0144 73.3391C23.8375 71.8976 22.3728 70.1043 19.5357 70.1043C18.6957 70.1043 17.9085 70.2651 17.1971 70.5822C15.8902 71.1642 16.797 73.1991 18.1054 72.6155C18.5351 72.4239 19.0033 72.3306 19.5357 72.3306C21.2288 72.3306 22.0641 73.2487 23.2875 74.7467C24.4644 76.1883 25.9301 77.9821 28.7666 77.9821C31.6027 77.9821 33.0684 76.1883 34.2453 74.7467C35.4687 73.2488 36.3041 72.3307 37.9971 72.3307C39.6898 72.3307 40.5261 73.2487 41.7493 74.7467C42.9264 76.1883 44.3911 77.9821 47.2281 77.9821C50.0647 77.9821 51.5302 76.1883 52.7073 74.7467C53.9307 73.2488 54.767 72.3307 56.4595 72.3307C58.1526 72.3307 58.9884 73.2487 60.2118 74.7467C61.3897 76.1883 62.8544 77.9821 65.6909 77.9821C68.5285 77.9821 69.9931 76.1883 71.1706 74.7467C72.3939 73.2488 73.2302 72.3307 74.9233 72.3307C76.3551 72.3307 76.357 70.1043 74.9238 70.1043ZM13.0247 74.5279C12.1625 75.3996 11.3744 75.7552 10.3047 75.7552C8.61211 75.7552 7.77581 74.8372 6.5529 73.3391C5.37549 71.8986 3.91081 70.1043 1.07375 70.1043C-0.356601 70.1043 -0.358977 72.3307 1.07375 72.3307C2.76679 72.3307 3.60262 73.2492 4.826 74.7467C6.00305 76.1883 7.46809 77.9821 10.3047 77.9821C12.4897 77.9821 13.8083 76.9036 14.6107 76.0927C15.6163 75.0755 14.0319 73.5088 13.0247 74.5279Z" fill="#4BAF47"></path></svg>