<svg xmlns="http://www.w3.org/2000/svg" width="80" height="80" viewBox="0 0 80 80" fill="none"><path d="M65.8393 64.4178V58.8541C65.8393 57.4247 63.6117 57.4233 63.6117 58.8541V63.7715L59.1006 66.3456C57.857 67.0559 58.9689 68.9836 60.2057 68.2785L65.2783 65.3836C65.4487 65.2863 65.5904 65.1457 65.6889 64.9761C65.7874 64.8065 65.8393 64.6139 65.8393 64.4178ZM26.2813 68.3406C26.4688 68.3406 26.6591 68.2929 26.8332 68.1941L31.9057 65.2992C32.0762 65.2017 32.2179 65.0609 32.3165 64.8912C32.4151 64.7215 32.4671 64.5287 32.4673 64.3325V58.7692C32.4673 57.3402 30.2396 57.3384 30.2396 58.7692V63.6867L25.7276 66.2611C24.7623 66.8124 25.1614 68.3406 26.2813 68.3406Z" fill="#4BAF47"></path><path d="M76.9602 33.4945L74.047 33.3986C73.8094 29.5309 71.6694 25.889 67.9298 23.0441C66.3439 21.8382 64.5401 20.8311 62.5825 20.0443C63.6081 19.1745 64.5725 18.1397 65.4302 16.9773C66.2984 15.7996 67.0108 14.5572 67.5483 13.2821C68.1029 11.9658 66.0544 11.091 65.4952 12.4183C65.0259 13.532 64.4008 14.6216 63.6364 15.6578C62.1082 17.7303 60.2192 19.3256 58.3188 20.1496C56.6198 20.8867 55.1546 20.9026 54.1916 20.1935C52.0483 18.6163 52.7529 13.8737 55.7291 9.83726C57.2579 7.7649 59.1468 6.16944 61.0472 5.345C62.7458 4.60828 64.2119 4.59214 65.1749 5.30109C66.1569 6.02428 66.3843 7.31553 66.4024 8.27195C66.4297 9.70694 68.6565 9.65875 68.63 8.23076C68.5911 6.17027 67.8337 4.49374 66.4958 3.50907C64.8671 2.31052 62.6177 2.23776 60.1598 3.30314C58.4465 4.04687 56.7604 5.29456 55.2777 6.89595C51.8619 2.6717 47.2993 0.866747 44.3045 2.78113C41.7362 4.42383 41.1724 8.25806 42.5828 12.3869L37.0392 9.22339C36.8709 9.12745 36.6806 9.07698 36.4869 9.07698C36.2932 9.07698 36.1028 9.12745 35.9346 9.22339L19.248 18.7461C19.0775 18.8434 18.9357 18.9841 18.8371 19.1537C18.7385 19.3234 18.6866 19.5161 18.6865 19.7123V38.1334L12.8831 41.4451C11.6402 42.1544 12.7262 44.0972 13.9885 43.3775L19.8003 40.0607L35.373 48.9478V66.7015L19.8003 75.588L4.22765 66.7015V48.9478L8.49358 46.5136C9.73644 45.8042 8.65005 43.8606 7.38819 44.5812L2.56161 47.3351C2.39114 47.4326 2.24945 47.5733 2.15085 47.743C2.05224 47.9128 2.00021 48.1055 2 48.3017V67.3467C1.99998 67.543 2.05192 67.7358 2.15055 67.9056C2.24917 68.0754 2.39099 68.2161 2.56161 68.3135L19.2481 77.8361C19.5879 78.03 20.0138 78.03 20.3527 77.8361L36.4868 68.6287L52.6211 77.8361C52.7895 77.9314 52.9798 77.9815 53.1734 77.9815C53.367 77.9815 53.5572 77.9314 53.7257 77.8361L56.4619 76.2751C57.7053 75.5648 56.6188 73.623 55.357 74.3422L53.1733 75.5889L37.6007 66.7013V48.9479L40.9273 47.0497C44.1723 48.5519 47.9096 49.4193 51.8247 49.5473C52.1617 49.5584 52.4981 49.5645 52.8332 49.5645C57.2509 49.5645 61.4645 48.6057 65.0097 46.8156L68.7461 48.9479V66.7016L61.2974 70.9517C60.0535 71.6621 61.14 73.6048 62.4019 72.8848L70.4122 68.3132C70.5827 68.2159 70.7244 68.0753 70.8231 67.9056C70.9217 67.7359 70.9737 67.5433 70.9738 67.3471V48.3017C70.9736 48.1055 70.9215 47.9128 70.8229 47.743C70.7243 47.5733 70.5826 47.4326 70.4122 47.3351L67.2359 45.5227C71.1264 42.9328 73.4845 39.4523 73.9742 35.623L76.8867 35.7186C78.3129 35.7687 78.4025 33.5413 76.9602 33.4944V33.4945ZM60.2189 46.3147C64.8519 39.7399 64.6755 33.2075 63.597 28.6937C62.9031 25.7875 61.7805 23.3918 60.8746 21.7746C62.9871 22.529 64.9182 23.5513 66.5798 24.8147C70.087 27.482 71.9539 30.9005 71.8374 34.4394C71.7214 37.9788 69.6335 41.2675 65.9597 43.6993C64.2602 44.8242 62.3183 45.7027 60.2189 46.3147ZM51.8976 47.3231C49.3368 47.2397 46.9012 46.814 44.6795 46.1148C50.4231 39.1727 50.206 32.5473 48.9376 28.1098C48.028 24.9292 46.49 22.4553 45.4439 21.0245C47.3202 20.5617 49.3321 20.2975 51.4257 20.2654C51.7741 20.9484 52.2545 21.5321 52.8704 21.9856C53.7349 22.6222 54.774 22.9406 55.9265 22.9406C56.7859 22.9406 57.7076 22.7613 58.6659 22.4065C59.5231 23.8619 60.7247 26.2571 61.4301 29.2096C62.9969 35.7678 61.4399 41.7715 56.803 47.0543C55.2159 47.2856 53.5711 47.3783 51.8976 47.3231ZM46.36 15.0908C43.6548 10.8675 43.2632 6.0892 45.5057 4.65611C45.952 4.37042 46.4756 4.23511 47.0492 4.23511C49.0838 4.23511 51.7463 5.93799 53.8328 8.66233C51.5165 11.8635 50.4729 15.3287 50.7856 18.0557C50.1605 18.0781 49.5409 18.1198 48.9269 18.18C47.9909 17.3181 47.117 16.2726 46.36 15.0908ZM32.8465 33.1607C33.0126 28.1144 37.1636 23.8375 43.1605 21.7084C44.0104 22.7728 45.8495 25.3531 46.818 28.8007C48.4489 34.6055 46.9801 40.151 42.4542 45.2933C36.5718 42.7818 32.6803 38.2264 32.8465 33.1606V33.1607ZM44.4838 16.2907C44.9992 17.0956 45.5755 17.8599 46.2077 18.5769C42.9847 19.2084 40.0075 20.3828 37.4943 22.0458C33.2025 24.8871 30.7615 28.8081 30.6203 33.088C30.4796 37.3668 32.6581 41.44 36.7551 44.556C37.3361 44.9989 37.9483 45.4133 38.5851 45.8019L36.4869 46.9991L20.9142 38.1114V20.3584L36.4868 11.4711L44.2391 15.8951C44.319 16.0279 44.4006 16.1599 44.4838 16.2907Z" fill="#4BAF47"></path><path d="M41.7504 32.6928C41.7036 34.1222 43.9288 34.2158 43.9771 32.7655C44.0495 30.5558 42.3091 28.6989 40.0968 28.6266C37.8858 28.5515 36.0252 30.2925 35.9529 32.5026C35.9061 33.9306 38.1323 34.0062 38.1792 32.5754C38.2117 31.592 39.0433 30.8164 40.0235 30.8508C41.0078 30.8827 41.7829 31.7089 41.7504 32.6928Z" fill="#4BAF47"></path></svg>